# xmcd
# 
# Track frame offsets:
#     150
#     17250
#     39825
#     55200
#     72825
#     83175
#     109650
#     142050
#     161025
#     175875
#     188550
# 
# Disc length: 2841
# 
# Revision: 1
# Processed by: cddbd v1.5.2PL0 Copyright (c) Steve Scherf et al.
# Submitted via: fre:ac v1.1beta1
# 
DISCID=870b170b
DTITLE=渡辺明日香 - Unaffected
DYEAR=2004
DGENRE=J-Jazz
TTITLE0=Just a Gigolo
TTITLE1=Once in a while
TTITLE2=Let's do it
TTITLE3=Don't blame me
TTITLE4=Twisted
TTITLE5=You Go To My Head
TTITLE6=Will You Still Be Mine?
TTITLE7=Solitude
TTITLE8=The One I Love Belongs To Somebody Else
TTITLE9=Tea for two
TTITLE10=Early autumn
EXTD=YEAR: 2004
EXTT0=
EXTT1=
EXTT2=
EXTT3=
EXTT4=
EXTT5=
EXTT6=
EXTT7=
EXTT8=
EXTT9=
EXTT10=
PLAYORDER=
